<?xml version="1.0" encoding="UTF-8" standalone="no"?>
<!-- Created with Inkscape (http://www.inkscape.org/) -->

<svg
   xmlns:dc="http://purl.org/dc/elements/1.1/"
   xmlns:cc="http://creativecommons.org/ns#"
   xmlns:rdf="http://www.w3.org/1999/02/22-rdf-syntax-ns#"
   xmlns:svg="http://www.w3.org/2000/svg"
   xmlns="http://www.w3.org/2000/svg"
   xmlns:sodipodi="http://sodipodi.sourceforge.net/DTD/sodipodi-0.dtd"
   xmlns:inkscape="http://www.inkscape.org/namespaces/inkscape"
   width="210mm"
   height="70mm"
   viewBox="0 0 744.09449 248.03151"
   id="svg2"
   version="1.1"
   inkscape:version="0.91 r13725"
   sodipodi:docname="logo.svg"
   inkscape:export-filename="/home/razetime/Documents/Code/razetime.github.io/img/logobg.png"
   inkscape:export-xdpi="64.628799"
   inkscape:export-ydpi="64.628799">
  <defs
     id="defs4" />
  <sodipodi:namedview
     id="base"
     pagecolor="#ffffff"
     bordercolor="#666666"
     borderopacity="1.0"
     inkscape:pageopacity="0.0"
     inkscape:pageshadow="2"
     inkscape:zoom="0.246084"
     inkscape:cx="-159.96549"
     inkscape:cy="-346.23545"
     inkscape:document-units="px"
     inkscape:current-layer="layer1"
     showgrid="false"
     inkscape:window-width="1215"
     inkscape:window-height="776"
     inkscape:window-x="65"
     inkscape:window-y="24"
     inkscape:window-maximized="1" />
  <metadata
     id="metadata7">
    <rdf:RDF>
      <cc:Work
         rdf:about="">
        <dc:format>image/svg+xml</dc:format>
        <dc:type
           rdf:resource="http://purl.org/dc/dcmitype/StillImage" />
        <dc:title />
      </cc:Work>
    </rdf:RDF>
  </metadata>
  <g
     inkscape:label="Layer 1"
     inkscape:groupmode="layer"
     id="layer1"
     transform="translate(0,-804.33069)">
    <g
       id="g4390"
       transform="matrix(1.1483285,3.313345,-3.3536476,1.1345285,2867.367,-163.17602)"
       style="fill:#0093ff;fill-opacity:1"
       inkscape:export-xdpi="118.60844"
       inkscape:export-ydpi="118.60844">
      <path
         sodipodi:nodetypes="sccsss"
         inkscape:connector-curvature="0"
         id="rect4278"
         d="m 4.8635437,830.92722 48.1364303,0 0,5.53572 -48.1364303,0 c -2.09381,0 -1.85537,-1.23447 -1.85537,-2.76786 0,-1.53339 -0.23844,-2.76786 1.85537,-2.76786 z"
         style="opacity:1;fill:#0093ff;fill-opacity:1;stroke:none;stroke-width:2.30000019;stroke-linecap:round;stroke-linejoin:round;stroke-miterlimit:4;stroke-dasharray:none;stroke-opacity:1" />
      <path
         inkscape:transform-center-y="7.7522144"
         inkscape:transform-center-x="-7.8298911"
         sodipodi:nodetypes="sccsss"
         inkscape:connector-curvature="0"
         id="rect4278-6"
         d="M 65.75704,852.09099 49.04136,834.776 l 3.97815,-3.84948 16.71568,17.31498 c 0.7268,0.75345 -0.24284,1.52582 -1.3448,2.59212 -1.10191,1.06633 -1.90628,2.01049 -2.63338,1.25734 z"
         style="opacity:1;fill:#0093ff;fill-opacity:1;stroke:none;stroke-width:2.30000019;stroke-linecap:round;stroke-linejoin:round;stroke-miterlimit:4;stroke-dasharray:none;stroke-opacity:1" />
      <path
         inkscape:transform-center-y="-7.7522189"
         inkscape:transform-center-x="7.8298885"
         sodipodi:nodetypes="sccsss"
         inkscape:connector-curvature="0"
         id="rect4278-6-2"
         d="m 38.019893,815.39611 16.71569,17.31499 -3.97815,3.84948 -16.71569,-17.31498 c -0.72679,-0.75345 0.24285,-1.52582 1.34481,-2.59212 1.1019,-1.06633 1.90627,-2.01049 2.63337,-1.25734 z"
         style="opacity:1;fill:#0093ff;fill-opacity:1;stroke:none;stroke-width:2.30000019;stroke-linecap:round;stroke-linejoin:round;stroke-miterlimit:4;stroke-dasharray:none;stroke-opacity:1" />
      <path
         sodipodi:nodetypes="sccsss"
         inkscape:connector-curvature="0"
         id="rect4278-7"
         d="m 144.1234,850.55988 -48.136428,0 0,-5.53572 48.136428,0 c 2.09381,0 1.85536,1.23447 1.85536,2.76786 0,1.53339 0.23845,2.76786 -1.85536,2.76786 z"
         style="opacity:1;fill:#0093ff;fill-opacity:1;stroke:none;stroke-width:2.30000019;stroke-linecap:round;stroke-linejoin:round;stroke-miterlimit:4;stroke-dasharray:none;stroke-opacity:1" />
      <path
         inkscape:transform-center-y="-7.7522144"
         inkscape:transform-center-x="7.8298884"
         sodipodi:nodetypes="sccsss"
         inkscape:connector-curvature="0"
         id="rect4278-6-0"
         d="m 83.229892,829.3961 16.71569,17.315 -3.97815,3.84948 -16.71569,-17.31498 c -0.72679,-0.75346 0.24285,-1.52583 1.34481,-2.59213 1.1019,-1.06633 1.90627,-2.01049 2.63337,-1.25734 z"
         style="opacity:1;fill:#0093ff;fill-opacity:1;stroke:none;stroke-width:2.30000019;stroke-linecap:round;stroke-linejoin:round;stroke-miterlimit:4;stroke-dasharray:none;stroke-opacity:1" />
      <path
         inkscape:transform-center-y="7.7522189"
         inkscape:transform-center-x="-7.8298897"
         sodipodi:nodetypes="sccsss"
         inkscape:connector-curvature="0"
         id="rect4278-6-2-9"
         d="M 110.96705,866.09099 94.251356,848.776 l 3.97815,-3.84948 16.715694,17.31498 c 0.72679,0.75345 -0.24285,1.52582 -1.34481,2.59212 -1.1019,1.06633 -1.90627,2.01049 -2.63337,1.25734 z"
         style="opacity:1;fill:#0093ff;fill-opacity:1;stroke:none;stroke-width:2.30000019;stroke-linecap:round;stroke-linejoin:round;stroke-miterlimit:4;stroke-dasharray:none;stroke-opacity:1" />
      <path
         inkscape:connector-curvature="0"
         id="rect4278-6-3"
         d="m 67.667633,829.99115 c -0.58463,-0.002 -1.24388,0.7276 -2.07031,1.52734 -1.10196,1.0663 -2.0725,1.84029 -1.34571,2.59375 l 16.7168,17.31446 0.002,-0.002 0.64453,0.66602 c 0.7271,0.75315 1.53091,-0.18953 2.63282,-1.25586 1.10196,-1.0663 2.07249,-1.8403 1.3457,-2.59375 l -16.7168,-17.31445 -0.002,0.002 -0.64453,-0.66602 c -0.18177,-0.18828 -0.36762,-0.27075 -0.5625,-0.27148 z"
         style="opacity:1;fill:#0093ff;fill-opacity:1;stroke:none;stroke-width:2.30000019;stroke-linecap:round;stroke-linejoin:round;stroke-miterlimit:4;stroke-dasharray:none;stroke-opacity:1" />
      <rect
         ry="1.4692235"
         rx="0.24195513"
         y="847.18085"
         x="65.511917"
         height="5.2081041"
         width="37.213409"
         id="rect4373"
         style="opacity:1;fill:#0093ff;fill-opacity:1;stroke:none;stroke-width:2.29999995;stroke-linecap:round;stroke-linejoin:round;stroke-miterlimit:4;stroke-dasharray:none;stroke-opacity:1" />
      <rect
         ry="1.4692236"
         rx="0.24195516"
         y="829.12128"
         x="46.246494"
         height="5.2081046"
         width="37.213413"
         id="rect4373-0"
         style="opacity:1;fill:#0093ff;fill-opacity:1;stroke:none;stroke-width:2.29999995;stroke-linecap:round;stroke-linejoin:round;stroke-miterlimit:4;stroke-dasharray:none;stroke-opacity:1" />
    </g>
  </g>
</svg>
