<?xml version="1.0" encoding="UTF-8" standalone="no"?>
<!-- Created with Inkscape (http://www.inkscape.org/) -->

<svg
   xmlns:dc="http://purl.org/dc/elements/1.1/"
   xmlns:cc="http://creativecommons.org/ns#"
   xmlns:rdf="http://www.w3.org/1999/02/22-rdf-syntax-ns#"
   xmlns:svg="http://www.w3.org/2000/svg"
   xmlns="http://www.w3.org/2000/svg"
   xmlns:sodipodi="http://sodipodi.sourceforge.net/DTD/sodipodi-0.dtd"
   xmlns:inkscape="http://www.inkscape.org/namespaces/inkscape"
   width="50mm"
   height="50mm"
   viewBox="0 0 177.16535 177.16535"
   id="svg2"
   version="1.1"
   inkscape:version="0.91 r13725"
   sodipodi:docname="raghuallthetime-icon.svg"
   inkscape:export-filename="C:\Documents and Settings\lara\Desktop\Code\RaghuAllTheTime.github.io\img\raghuallthetime-icon.png"
   inkscape:export-xdpi="65.680801"
   inkscape:export-ydpi="65.680801">
  <defs
     id="defs4" />
  <sodipodi:namedview
     id="base"
     pagecolor="#ffffff"
     bordercolor="#666666"
     borderopacity="1.0"
     inkscape:pageopacity="0.0"
     inkscape:pageshadow="2"
     inkscape:zoom="2.8"
     inkscape:cx="93.916529"
     inkscape:cy="62.09029"
     inkscape:document-units="px"
     inkscape:current-layer="layer1"
     showgrid="false"
     fit-margin-top="0"
     fit-margin-left="0"
     fit-margin-right="0"
     fit-margin-bottom="0"
     width="50mm"
     inkscape:window-width="1680"
     inkscape:window-height="989"
     inkscape:window-x="-4"
     inkscape:window-y="-4"
     inkscape:window-maximized="1" />
  <metadata
     id="metadata7">
    <rdf:RDF>
      <cc:Work
         rdf:about="">
        <dc:format>image/svg+xml</dc:format>
        <dc:type
           rdf:resource="http://purl.org/dc/dcmitype/StillImage" />
        <dc:title />
      </cc:Work>
    </rdf:RDF>
  </metadata>
  <g
     inkscape:label="Layer 1"
     inkscape:groupmode="layer"
     id="layer1"
     transform="translate(0,-875.19686)">
    <path
       style="fill:#000000;fill-opacity:1;fill-rule:evenodd;stroke:#000000;stroke-width:0.85336089px;stroke-linecap:butt;stroke-linejoin:miter;stroke-opacity:0"
       d="m 84.624158,914.68654 c 6.383193,1.0415 7.5812,8.55041 7.220809,13.91473 -1.437203,31.92489 0.519907,63.90809 -0.966115,95.83743 -2.548203,7.7633 -15.875701,2.7207 -13.22041,-4.9246 0.904676,-30.08103 0.135079,-60.18338 0.363634,-90.27307 0.161798,-5.49808 -1.51091,-14.25134 6.602082,-14.55449 z"
       id="rect4021-2"
       inkscape:connector-curvature="0" />
    <path
       style="fill:#000000;fill-opacity:1;fill-rule:evenodd;stroke:#000029;stroke-width:0.75592357px;stroke-linecap:butt;stroke-linejoin:miter;stroke-opacity:0"
       d="m 58.534848,890.27752 c 7.023516,-3.69642 13.252793,3.43592 17.367011,8.27938 17.227042,18.85437 35.410131,36.80076 52.935551,55.37284 2.60537,7.0155 -8.91495,11.01611 -12.62418,5.34621 -4.76015,-6.46288 -10.80094,-11.99802 -16.238782,-17.93246 -14.145542,-14.69548 -28.564678,-29.14183 -42.31983,-44.20322 -2.430432,-1.75905 -1.632817,-5.62323 0.88023,-6.86275 z"
       id="rect4021-6-8"
       inkscape:connector-curvature="0" />
    <path
       style="fill:#000000;fill-opacity:1;fill-rule:evenodd;stroke:#000000;stroke-width:0.57074142px;stroke-linecap:butt;stroke-linejoin:miter;stroke-opacity:0"
       d="m 126.83286,952.90574 c 3.67653,6.28754 -3.4249,11.57677 -8.14508,14.51974 -10.44049,7.35085 -19.237198,16.9722 -30.535522,23.12006 -6.124902,0.62316 -7.850834,-7.72597 -4.582121,-11.72455 3.097314,-3.09544 7.772796,-3.91626 10.8827,-7.28084 7.418633,-5.86234 14.460103,-12.21743 22.040883,-17.85221 2.99272,-2.02828 7.19637,-3.17353 10.33914,-0.7822 z"
       id="rect4021-9-6"
       inkscape:connector-curvature="0" />
    <path
       style="fill:none;fill-rule:evenodd;stroke:#ffffff;stroke-width:1.05810153px;stroke-linecap:butt;stroke-linejoin:miter;stroke-opacity:1"
       d="m 77.926004,919.32161 c 4.873068,4.95303 9.939308,9.73474 14.394216,15.07975"
       id="path4153"
       inkscape:connector-curvature="0" />
    <path
       style="fill:none;fill-rule:evenodd;stroke:#ffffff;stroke-width:0.005;stroke-linecap:butt;stroke-linejoin:miter;stroke-miterlimit:4;stroke-dasharray:none;stroke-opacity:1"
       d="m 91.545074,973.69659 c -4.587776,3.2409 -9.175552,6.48181 -13.763328,9.72271"
       id="path4177"
       inkscape:connector-curvature="0" />
    <path
       style="fill:#000000"
       d="m 83.571425,985.93365 c 10.316201,0.19886 20.706145,-0.4092 30.975725,0.32506 5.49219,1.87984 4.44139,11.07826 -1.67537,11.05969 -10.18396,0.0295 -20.391266,0.16643 -30.582155,-0.0761 -5.7616,-1.00268 -5.865256,-10.48917 0.203547,-11.21362 l 1.078253,-0.095 z"
       id="rect3349"
       inkscape:connector-curvature="0" />
    <path
       style="fill:#000000"
       d="m 117.73441,987.97156 c 3.94092,2.87473 9.41243,8.46621 4.18979,12.90804 -5.2289,4.6873 -11.09652,-2.12954 -13.92755,-6.22114 -1.95089,-5.52575 5.26675,-10.92421 9.73776,-6.6869 z"
       id="rect3351"
       inkscape:connector-curvature="0" />
    <path
       style="fill:#000000"
       d="m 118.71652,991.64795 c 5.06754,-0.45286 7.26527,5.28627 6.26987,9.47475 -0.14533,8.0718 0.39846,16.2207 -0.3208,24.2432 -2.14523,6.1133 -12.52139,4.3273 -11.8515,-2.4748 0.15718,-8.8365 -0.10975,-17.6795 0.14343,-26.51667 0.48147,-2.66366 3.0408,-4.79942 5.759,-4.72648 z"
       id="rect3353"
       inkscape:connector-curvature="0" />
    <path
       style="fill:#4d4d4d;fill-opacity:1;fill-rule:evenodd;stroke:#000000;stroke-width:0.85336089px;stroke-linecap:butt;stroke-linejoin:miter;stroke-opacity:0"
       d="m 78.357396,914.46915 c 6.383193,1.0415 7.581199,8.55041 7.220808,13.91473 -1.437203,31.92486 0.519908,63.90802 -0.966115,95.83732 -2.548199,7.7633 -15.875694,2.7207 -13.220409,-4.9246 0.904677,-30.08099 0.135078,-60.18331 0.363634,-90.27296 0.161798,-5.49808 -1.51091,-14.25134 6.602082,-14.55449 z"
       id="rect4021-2-8"
       inkscape:connector-curvature="0" />
    <path
       style="fill:#4d4d4d;fill-opacity:1;fill-rule:evenodd;stroke:#000029;stroke-width:0.75592357px;stroke-linecap:butt;stroke-linejoin:miter;stroke-opacity:0"
       d="m 52.268087,890.06013 c 7.023515,-3.69642 13.252792,3.43592 17.36701,8.27938 17.227039,18.85437 35.410123,36.80077 52.935543,55.37284 2.60537,7.0155 -8.91495,11.01611 -12.62418,5.34621 -4.76015,-6.46288 -10.800934,-11.99802 -16.238777,-17.93246 -14.14554,-14.69548 -28.564675,-29.14183 -42.319826,-44.20322 -2.430432,-1.75905 -1.632817,-5.62323 0.88023,-6.86275 z"
       id="rect4021-6-8-6"
       inkscape:connector-curvature="0" />
    <path
       style="fill:#4d4d4d;fill-opacity:1;fill-rule:evenodd;stroke:#000000;stroke-width:0.57074142px;stroke-linecap:butt;stroke-linejoin:miter;stroke-opacity:0"
       d="m 120.56609,952.68835 c 3.67653,6.28754 -3.4249,11.57677 -8.14508,14.51974 -10.4405,7.35084 -19.237195,16.97219 -30.535515,23.12005 -6.124902,0.62316 -7.850833,-7.72597 -4.58212,-11.72455 3.097313,-3.09544 7.772795,-3.91626 10.8827,-7.28084 7.418635,-5.86233 14.460105,-12.21742 22.040875,-17.8522 2.99272,-2.02828 7.19638,-3.17353 10.33914,-0.7822 z"
       id="rect4021-9-6-8"
       inkscape:connector-curvature="0" />
    <path
       style="fill:#e6e6e6;fill-rule:evenodd;stroke:#ffffff;stroke-width:1.05810153px;stroke-linecap:butt;stroke-linejoin:miter;stroke-opacity:1"
       d="m 71.659242,919.10422 c 4.873068,4.95303 9.939308,9.73474 14.394215,15.07975"
       id="path4153-0"
       inkscape:connector-curvature="0" />
    <path
       style="fill:#e6e6e6;fill-rule:evenodd;stroke:#ffffff;stroke-width:0.005;stroke-linecap:butt;stroke-linejoin:miter;stroke-miterlimit:4;stroke-dasharray:none;stroke-opacity:1"
       d="m 87.421168,975.97919 c -4.587776,3.2409 -9.175551,6.48181 -13.763327,9.72271"
       id="path4177-8"
       inkscape:connector-curvature="0" />
    <path
       style="fill:#4d4d4d"
       d="m 77.304663,985.71625 c 10.316198,0.19886 20.706136,-0.4092 30.975717,0.32506 5.49218,1.87984 4.4414,11.07825 -1.67537,11.05966 -10.183958,0.0296 -20.391261,0.16657 -30.582147,-0.0761 -5.761613,-1.00265 -5.865247,-10.48916 0.203547,-11.2136 l 1.078253,-0.095 0,0 z"
       id="rect3349-0"
       inkscape:connector-curvature="0" />
    <path
       style="fill:#4d4d4d"
       d="m 111.46764,987.75416 c 3.94093,2.87473 9.41243,8.46619 4.18979,12.90804 -5.22889,4.6874 -11.0965,-2.12956 -13.92755,-6.22113 -1.950894,-5.52575 5.26674,-10.92423 9.73776,-6.68691 z"
       id="rect3351-4"
       inkscape:connector-curvature="0" />
    <path
       style="fill:#4d4d4d"
       d="m 112.44975,991.43055 c 5.06752,-0.45287 7.26528,5.28623 6.26987,9.47465 -0.14533,8.0718 0.39846,16.2207 -0.3208,24.2432 -2.14523,6.1133 -12.52139,4.3273 -11.8515,-2.4748 0.15718,-8.8365 -0.10975,-17.6795 0.14343,-26.51656 0.48147,-2.66366 3.0408,-4.79943 5.759,-4.72649 z"
       id="rect3353-0"
       inkscape:connector-curvature="0" />
  </g>
</svg>
