<?xml version="1.0" encoding="UTF-8" standalone="no"?>
<!-- Created with Inkscape (http://www.inkscape.org/) -->

<svg
   xmlns:dc="http://purl.org/dc/elements/1.1/"
   xmlns:cc="http://creativecommons.org/ns#"
   xmlns:rdf="http://www.w3.org/1999/02/22-rdf-syntax-ns#"
   xmlns:svg="http://www.w3.org/2000/svg"
   xmlns="http://www.w3.org/2000/svg"
   xmlns:sodipodi="http://sodipodi.sourceforge.net/DTD/sodipodi-0.dtd"
   xmlns:inkscape="http://www.inkscape.org/namespaces/inkscape"
   width="50mm"
   height="50mm"
   viewBox="0 0 177.16535 177.16535"
   id="svg2"
   version="1.1"
   inkscape:version="0.91 r13725"
   sodipodi:docname="raghuallthetime-icon.svg">
  <defs
     id="defs4" />
  <sodipodi:namedview
     id="base"
     pagecolor="#ffffff"
     bordercolor="#666666"
     borderopacity="1.0"
     inkscape:pageopacity="0.0"
     inkscape:pageshadow="2"
     inkscape:zoom="1.4"
     inkscape:cx="267.5"
     inkscape:cy="17.548959"
     inkscape:document-units="px"
     inkscape:current-layer="layer1"
     showgrid="false"
     fit-margin-top="0"
     fit-margin-left="0"
     fit-margin-right="0"
     fit-margin-bottom="0"
     width="50mm"
     inkscape:window-width="1440"
     inkscape:window-height="876"
     inkscape:window-x="0"
     inkscape:window-y="24"
     inkscape:window-maximized="1" />
  <metadata
     id="metadata7">
    <rdf:RDF>
      <cc:Work
         rdf:about="">
        <dc:format>image/svg+xml</dc:format>
        <dc:type
           rdf:resource="http://purl.org/dc/dcmitype/StillImage" />
        <dc:title />
      </cc:Work>
    </rdf:RDF>
  </metadata>
  <g
     inkscape:label="Layer 1"
     inkscape:groupmode="layer"
     id="layer1"
     transform="translate(0,-875.19686)">
    <ellipse
       style="fill:#607d8b;fill-opacity:1"
       id="path3357"
       cx="88.714287"
       cy="964.14795"
       rx="88.571419"
       ry="88.928574" />
    <ellipse
       style="fill:#263238;fill-opacity:1"
       id="path4161"
       cx="85.000008"
       cy="962.7193"
       rx="85.714287"
       ry="87.499992" />
    <path
       style="fill:#eeeeee;fill-opacity:1;fill-rule:evenodd;stroke:#000000;stroke-width:0.85336089px;stroke-linecap:butt;stroke-linejoin:miter;stroke-opacity:0"
       d="m 77.837049,914.68656 c 5.94515,0.51497 7.455045,7.56582 7.147216,12.61927 -0.936926,26.24795 -0.113138,52.53394 -0.388838,78.79727 -0.184834,6.2361 0.168019,12.5782 -0.481053,18.7458 -2.864609,6.9656 -15.189025,2.7411 -13.120332,-4.6293 0.657325,-33.15634 0.0166,-66.31996 0.293114,-99.47908 0.240232,-3.33026 3.293314,-6.14954 6.549893,-6.05396 z"
       id="rect4021"
       inkscape:connector-curvature="0" />
    <path
       style="fill:#eeeeee;fill-opacity:1;fill-rule:evenodd;stroke:#000000;stroke-width:0.75592357px;stroke-linecap:butt;stroke-linejoin:miter;stroke-opacity:0"
       d="m 51.747739,890.27752 c 5.826291,-3.55939 11.828986,1.88335 15.432557,6.27103 17.923137,19.49287 36.665764,38.16809 54.870014,57.38121 2.28738,5.43123 -4.58049,9.37288 -9.09822,7.70116 -4.07909,-1.40945 -5.36896,-6.21161 -8.78341,-8.70538 -17.897214,-18.91969 -36.218492,-37.41324 -54.062684,-56.38599 -1.457255,-2.01911 -0.544656,-5.21987 1.641743,-6.26203 z"
       id="rect4021-6"
       inkscape:connector-curvature="0" />
    <path
       style="fill:#eeeeee;fill-opacity:1;fill-rule:evenodd;stroke:#000000;stroke-width:0.57074142px;stroke-linecap:butt;stroke-linejoin:miter;stroke-opacity:0"
       d="m 120.04576,952.90571 c 4.57192,7.44378 -5.44136,12.23833 -10.17144,15.89302 -9.45324,7.30699 -18.016652,15.9468 -28.509165,21.74686 -8.300318,1.02044 -8.244715,-13.12051 -0.584776,-13.8254 7.826778,-5.62923 15.067166,-12.07781 22.663451,-18.00607 4.20648,-3.97929 10.67377,-9.85351 16.60193,-5.80841 z"
       id="rect4021-9"
       inkscape:connector-curvature="0" />
    <path
       style="fill:#eeeeee;fill-opacity:1;fill-rule:evenodd;stroke:#000000;stroke-width:0.59768641px;stroke-linecap:butt;stroke-linejoin:miter;stroke-opacity:0"
       d="m 122.42526,1025.98 c -4.89503,3.4655 -10.59056,-0.5759 -13.91416,-4.4039 -9.343948,-10.4197 -19.977085,-19.5316 -29.344489,-29.93287 -2.884285,-7.33477 9.303295,-12.13717 12.735527,-5.4679 9.612412,11.31697 21.151312,20.68217 31.048942,31.71577 1.62598,2.3478 2.04387,6.2291 -0.52582,8.0889 z"
       id="rect4021-9-9"
       inkscape:connector-curvature="0" />
  </g>
</svg>
