<?xml version="1.0" encoding="UTF-8" standalone="no"?>
<!-- Created with Inkscape (http://www.inkscape.org/) -->

<svg
   xmlns:dc="http://purl.org/dc/elements/1.1/"
   xmlns:cc="http://creativecommons.org/ns#"
   xmlns:rdf="http://www.w3.org/1999/02/22-rdf-syntax-ns#"
   xmlns:svg="http://www.w3.org/2000/svg"
   xmlns="http://www.w3.org/2000/svg"
   xmlns:sodipodi="http://sodipodi.sourceforge.net/DTD/sodipodi-0.dtd"
   xmlns:inkscape="http://www.inkscape.org/namespaces/inkscape"
   width="50mm"
   height="50mm"
   viewBox="0 0 177.16535 177.16535"
   id="svg2"
   version="1.1"
   inkscape:version="0.91 r13725"
   sodipodi:docname="raghuallthetime-icon.svg">
  <defs
     id="defs4" />
  <sodipodi:namedview
     id="base"
     pagecolor="#ffffff"
     bordercolor="#666666"
     borderopacity="1.0"
     inkscape:pageopacity="0.0"
     inkscape:pageshadow="2"
     inkscape:zoom="2.8"
     inkscape:cx="84.630815"
     inkscape:cy="78.518861"
     inkscape:document-units="px"
     inkscape:current-layer="layer1"
     showgrid="false"
     fit-margin-top="0"
     fit-margin-left="0"
     fit-margin-right="0"
     fit-margin-bottom="0"
     width="50mm"
     inkscape:window-width="1680"
     inkscape:window-height="989"
     inkscape:window-x="-4"
     inkscape:window-y="-4"
     inkscape:window-maximized="1" />
  <metadata
     id="metadata7">
    <rdf:RDF>
      <cc:Work
         rdf:about="">
        <dc:format>image/svg+xml</dc:format>
        <dc:type
           rdf:resource="http://purl.org/dc/dcmitype/StillImage" />
        <dc:title />
      </cc:Work>
    </rdf:RDF>
  </metadata>
  <g
     inkscape:label="Layer 1"
     inkscape:groupmode="layer"
     id="layer1"
     transform="translate(0,-875.19686)">
    <path
       style="fill:#000000;fill-opacity:1;fill-rule:evenodd;stroke:#000000;stroke-width:0.85336089px;stroke-linecap:butt;stroke-linejoin:miter;stroke-opacity:0"
       d="m 84.624158,914.68654 c 8.050166,1.48499 7.498744,11.4778 6.984632,17.75865 -0.927674,30.65537 0.631156,61.36093 -0.729938,91.99351 -2.005287,7.1547 -14.616689,3.529 -13.284178,-3.4978 0.711647,-15.2162 0.402007,-30.53848 0.486569,-45.79664 -0.0351,-18.1345 -0.158202,-36.26942 -0.007,-54.40372 0.228487,-3.27248 3.23864,-6.14528 6.5499,-6.054 z"
       id="rect4021-2"
       inkscape:connector-curvature="0" />
    <path
       style="fill:#000000;fill-opacity:1;fill-rule:evenodd;stroke:#000029;stroke-width:0.75592357px;stroke-linecap:butt;stroke-linejoin:miter;stroke-opacity:0"
       d="m 58.534848,890.27752 c 5.528554,-3.19316 11.334782,1.39544 14.832822,5.49121 17.968554,19.87613 37.08314,38.67632 55.46974,58.16101 2.74531,7.76033 -10.33671,11.28993 -13.29034,4.12686 -12.46896,-13.99687 -25.900036,-27.10964 -38.797515,-40.71287 -6.738745,-7.21168 -13.96448,-14.07729 -20.291435,-21.60791 -0.768707,-1.98718 0.140533,-4.5147 2.076728,-5.4583 z"
       id="rect4021-6-8"
       inkscape:connector-curvature="0" />
    <path
       style="fill:#000000;fill-opacity:1;fill-rule:evenodd;stroke:#000000;stroke-width:0.57074142px;stroke-linecap:butt;stroke-linejoin:miter;stroke-opacity:0"
       d="m 126.83286,952.90574 c 4.01711,6.7496 -4.25778,11.98536 -9.08711,15.13452 -9.97448,7.35293 -18.648641,16.50898 -29.593492,22.50528 -8.596306,0.59054 -7.918188,-13.57302 -0.0777,-14.41535 6.416825,-4.12309 12.021687,-9.39591 18.015077,-14.10831 4.70005,-3.48244 8.69729,-8.38725 14.39756,-10.20647 2.14321,-0.52802 4.55132,-0.27266 6.34566,1.09033 z"
       id="rect4021-9-6"
       inkscape:connector-curvature="0" />
    <path
       style="fill:none;fill-rule:evenodd;stroke:#ffffff;stroke-width:1.05810153px;stroke-linecap:butt;stroke-linejoin:miter;stroke-opacity:1"
       d="m 77.926004,919.32161 c 4.873062,4.95302 9.939322,9.73475 14.394216,15.07975"
       id="path4153"
       inkscape:connector-curvature="0" />
    <path
       style="fill:none;fill-rule:evenodd;stroke:#ffffff;stroke-width:0.005;stroke-linecap:butt;stroke-linejoin:miter;stroke-opacity:1;stroke-miterlimit:4;stroke-dasharray:none"
       d="M 91.545074,973.69659 77.781746,983.4193"
       id="path4177"
       inkscape:connector-curvature="0" />
    <path
       style="fill:#000000"
       d="m 83.571425,985.93365 c 10.066319,0.0746 20.134845,-0.15221 30.199465,0.1186 4.30162,0.76498 6.07522,7.09914 2.58153,9.85601 -2.78309,2.26378 -6.58845,1.28712 -9.86866,1.44009 -8.064624,-0.0172 -16.13144,0.13658 -24.194135,-0.10609 -4.230987,-0.75864 -6.053163,-6.96845 -2.650257,-9.74516 1.052046,-0.9877 2.481833,-1.58812 3.932057,-1.56345 z"
       id="rect3349"
       inkscape:connector-curvature="0" />
    <path
       style="fill:#000000"
       d="m 117.73441,987.97156 c 2.27692,2.45378 5.97729,4.20468 6.36585,7.89812 0.37327,4.34952 -4.92272,8.37652 -8.8493,5.94792 -2.4999,-1.5308 -4.42709,-3.80514 -6.52592,-5.80768 -2.56271,-3.39889 -0.0121,-8.7095 4.03875,-9.41162 1.74751,-0.36171 3.68121,0.11352 4.97062,1.37326 z"
       id="rect3351"
       inkscape:connector-curvature="0" />
    <path
       style="fill:#000000"
       d="m 118.71652,991.64795 c 3.71426,-0.4174 6.99428,3.45815 6.28102,7.05381 -0.0627,8.60754 0.14341,17.21734 -0.11074,25.82304 -0.81049,4.6763 -7.74128,6.358 -10.62123,2.5744 -2.15914,-2.4549 -1.24643,-5.8379 -1.39515,-8.7868 0.003,-7.3126 -0.10841,-14.6268 0.0871,-21.93797 0.48125,-2.66347 3.04132,-4.79974 5.75899,-4.72648 z"
       id="rect3353"
       inkscape:connector-curvature="0" />
    <path
       style="fill:#e6e6e6;fill-opacity:1;fill-rule:evenodd;stroke:#000000;stroke-width:0.85336089px;stroke-linecap:butt;stroke-linejoin:miter;stroke-opacity:0"
       d="m 80.500253,916.96915 c 8.050165,1.48499 7.498743,11.4778 6.984631,17.75865 -0.927674,30.65537 0.631156,61.36092 -0.729938,91.9934 -2.005287,7.1547 -14.616688,3.529 -13.284177,-3.4978 0.711647,-15.2161 0.402007,-30.53838 0.486569,-45.79654 -0.0351,-18.13449 -0.158202,-36.26941 -0.007,-54.40371 0.228487,-3.27248 3.23864,-6.14528 6.5499,-6.054 z"
       id="rect4021-2-8"
       inkscape:connector-curvature="0" />
    <path
       style="fill:#e6e6e6;fill-opacity:1;fill-rule:evenodd;stroke:#000029;stroke-width:0.75592357px;stroke-linecap:butt;stroke-linejoin:miter;stroke-opacity:0"
       d="m 54.410944,892.56013 c 5.528554,-3.19316 11.334781,1.39544 14.832821,5.49121 17.968553,19.87613 37.083135,38.67632 55.469735,58.16101 2.74531,7.76033 -10.33671,11.28993 -13.29034,4.12686 -12.468957,-13.99687 -25.900032,-27.10964 -38.79751,-40.71287 -6.738745,-7.21168 -13.964479,-14.07729 -20.291434,-21.60791 -0.768707,-1.98718 0.140533,-4.5147 2.076728,-5.4583 z"
       id="rect4021-6-8-6"
       inkscape:connector-curvature="0" />
    <path
       style="fill:#e6e6e6;fill-opacity:1;fill-rule:evenodd;stroke:#000000;stroke-width:0.57074142px;stroke-linecap:butt;stroke-linejoin:miter;stroke-opacity:0"
       d="m 122.70895,955.18835 c 4.01711,6.7496 -4.25778,11.98536 -9.08711,15.13452 -9.97448,7.35292 -18.648638,16.50897 -29.593488,22.50527 -8.596305,0.59054 -7.918187,-13.57302 -0.0777,-14.41535 6.416825,-4.12309 12.021691,-9.3959 18.015078,-14.1083 4.70005,-3.48244 8.69729,-8.38725 14.39756,-10.20647 2.14321,-0.52802 4.55132,-0.27266 6.34566,1.09033 z"
       id="rect4021-9-6-8"
       inkscape:connector-curvature="0" />
    <path
       style="fill:#e6e6e6;fill-rule:evenodd;stroke:#ffffff;stroke-width:1.05810153px;stroke-linecap:butt;stroke-linejoin:miter;stroke-opacity:1"
       d="m 73.802099,921.60422 c 4.873062,4.95302 9.939321,9.73475 14.394215,15.07975"
       id="path4153-0"
       inkscape:connector-curvature="0" />
    <path
       style="fill:#e6e6e6;fill-rule:evenodd;stroke:#ffffff;stroke-width:0.005;stroke-linecap:butt;stroke-linejoin:miter;stroke-miterlimit:4;stroke-dasharray:none;stroke-opacity:1"
       d="M 87.421168,975.97919 73.657841,985.7019"
       id="path4177-8"
       inkscape:connector-curvature="0" />
    <path
       style="fill:#e6e6e6"
       d="m 79.44752,988.21625 c 10.066318,0.0746 20.134843,-0.15221 30.19946,0.1186 4.30162,0.76498 6.07522,7.09914 2.58153,9.85599 -2.78309,2.26376 -6.58845,1.2871 -9.86866,1.4401 -8.064621,-0.017 -16.131436,0.1366 -24.19413,-0.1061 -4.230987,-0.7586 -6.053163,-6.96843 -2.650257,-9.74514 1.052046,-0.9877 2.481833,-1.58812 3.932057,-1.56345 z"
       id="rect3349-0"
       inkscape:connector-curvature="0" />
    <path
       style="fill:#e6e6e6"
       d="m 113.6105,990.25416 c 2.27692,2.45378 5.97729,4.20468 6.36585,7.89808 0.37327,4.34956 -4.92272,8.37656 -8.8493,5.94796 -2.4999,-1.5308 -4.42709,-3.8052 -6.52592,-5.80766 -2.56271,-3.39891 -0.0121,-8.70952 4.03875,-9.41164 1.74751,-0.36171 3.68121,0.11352 4.97062,1.37326 z"
       id="rect3351-4"
       inkscape:connector-curvature="0" />
    <path
       style="fill:#e6e6e6"
       d="m 114.59261,993.93055 c 3.71426,-0.4174 6.99428,3.45815 6.28102,7.05375 -0.0627,8.6076 0.14341,17.2173 -0.11074,25.823 -0.81049,4.6763 -7.74128,6.358 -10.62123,2.5744 -2.15914,-2.4549 -1.24643,-5.8379 -1.39515,-8.7868 0.003,-7.3125 -0.10841,-14.6267 0.0871,-21.93786 0.48125,-2.66348 3.04132,-4.79975 5.75899,-4.72649 z"
       id="rect3353-0"
       inkscape:connector-curvature="0" />
  </g>
</svg>
