<?xml version="1.0" encoding="UTF-8" standalone="no"?>
<!-- Created with Inkscape (http://www.inkscape.org/) -->

<svg
   xmlns:dc="http://purl.org/dc/elements/1.1/"
   xmlns:cc="http://creativecommons.org/ns#"
   xmlns:rdf="http://www.w3.org/1999/02/22-rdf-syntax-ns#"
   xmlns:svg="http://www.w3.org/2000/svg"
   xmlns="http://www.w3.org/2000/svg"
   xmlns:sodipodi="http://sodipodi.sourceforge.net/DTD/sodipodi-0.dtd"
   xmlns:inkscape="http://www.inkscape.org/namespaces/inkscape"
   width="50mm"
   height="50mm"
   viewBox="0 0 177.16535 177.16535"
   id="svg2"
   version="1.1"
   inkscape:version="0.91 r13725"
   sodipodi:docname="raghuallthetime-icon.svg">
  <defs
     id="defs4" />
  <sodipodi:namedview
     id="base"
     pagecolor="#ffffff"
     bordercolor="#666666"
     borderopacity="1.0"
     inkscape:pageopacity="0.0"
     inkscape:pageshadow="2"
     inkscape:zoom="2.8"
     inkscape:cx="84.630815"
     inkscape:cy="78.876004"
     inkscape:document-units="px"
     inkscape:current-layer="layer1"
     showgrid="false"
     fit-margin-top="0"
     fit-margin-left="0"
     fit-margin-right="0"
     fit-margin-bottom="0"
     width="50mm"
     inkscape:window-width="1440"
     inkscape:window-height="844"
     inkscape:window-x="0"
     inkscape:window-y="27"
     inkscape:window-maximized="1" />
  <metadata
     id="metadata7">
    <rdf:RDF>
      <cc:Work
         rdf:about="">
        <dc:format>image/svg+xml</dc:format>
        <dc:type
           rdf:resource="http://purl.org/dc/dcmitype/StillImage" />
        <dc:title />
      </cc:Work>
    </rdf:RDF>
  </metadata>
  <g
     inkscape:label="Layer 1"
     inkscape:groupmode="layer"
     id="layer1"
     transform="translate(0,-875.19686)">
    <path
       style="fill:#eeeeee;fill-opacity:1;fill-rule:evenodd;stroke:#000000;stroke-width:0.85336089px;stroke-linecap:butt;stroke-linejoin:miter;stroke-opacity:0"
       d="m 77.837049,914.68656 c 8.050161,1.48497 7.498753,11.47778 6.984637,17.75862 -0.927679,30.65537 0.631163,61.36093 -0.729937,91.99352 -2.005288,7.1547 -14.616693,3.529 -13.284181,-3.4978 0.71165,-15.2162 0.40201,-30.53849 0.486571,-45.79665 -0.0351,-18.1345 -0.158202,-36.26942 -0.007,-54.40373 0.228603,-3.27257 3.238529,-6.14515 6.549893,-6.05396 z"
       id="rect4021"
       inkscape:connector-curvature="0" />
    <path
       style="fill:#eeeeee;fill-opacity:1;fill-rule:evenodd;stroke:#000000;stroke-width:0.75592357px;stroke-linecap:butt;stroke-linejoin:miter;stroke-opacity:0"
       d="m 51.747739,890.27752 c 5.528554,-3.19316 11.334783,1.39543 14.832827,5.4912 17.968568,19.87613 37.083144,38.67633 55.469744,58.16104 2.74532,7.76033 -10.33672,11.28989 -13.29034,4.12683 -12.468964,-13.99686 -25.900039,-27.10963 -38.797514,-40.71286 -6.738744,-7.21169 -13.964486,-14.0773 -20.291447,-21.60791 -0.768703,-1.98718 0.140536,-4.5147 2.07673,-5.4583 z"
       id="rect4021-6"
       inkscape:connector-curvature="0" />
    <path
       style="fill:#eeeeee;fill-opacity:1;fill-rule:evenodd;stroke:#000000;stroke-width:0.57074142px;stroke-linecap:butt;stroke-linejoin:miter;stroke-opacity:0"
       d="m 120.04576,952.90571 c 4.01713,6.74961 -4.25776,11.9854 -9.08711,15.13455 -9.97451,7.35292 -18.648661,16.50899 -29.593495,22.50533 -8.596291,0.59051 -7.918199,-13.57302 -0.0777,-14.41536 6.416825,-4.1231 12.021701,-9.39592 18.015083,-14.10834 4.700042,-3.48247 8.697282,-8.38728 14.397562,-10.20651 2.14321,-0.52802 4.55132,-0.27266 6.34566,1.09033 z"
       id="rect4021-9"
       inkscape:connector-curvature="0" />
    <path
       style="fill:#eeeeee;fill-opacity:1;fill-rule:evenodd;stroke:#000000;stroke-width:0.59768641px;stroke-linecap:butt;stroke-linejoin:miter;stroke-opacity:0"
       d="m 122.42526,1025.98 c -7.24345,4.3123 -13.48374,-3.7767 -17.79738,-8.5952 -8.332667,-8.7331 -17.378955,-16.7664 -25.461269,-25.74157 -2.905337,-7.1608 9.352331,-12.05789 12.870172,-5.58617 7.917313,9.97258 17.957637,18.10304 26.721527,27.34084 3.26503,3.095 8.39626,8.3507 3.66695,12.5821 z"
       id="rect4021-9-9"
       inkscape:connector-curvature="0" />
    <path
       style="fill:#000000;fill-opacity:1;fill-rule:evenodd;stroke:#000000;stroke-width:0.85336089px;stroke-linecap:butt;stroke-linejoin:miter;stroke-opacity:0"
       d="m 84.624158,914.68654 c 8.050166,1.48499 7.498744,11.4778 6.984632,17.75865 -0.927674,30.65537 0.631156,61.36093 -0.729938,91.99351 -2.005287,7.1547 -14.616689,3.529 -13.284178,-3.4978 0.711647,-15.2162 0.402007,-30.53848 0.486569,-45.79664 -0.0351,-18.1345 -0.158202,-36.26942 -0.007,-54.40372 0.228487,-3.27248 3.23864,-6.14528 6.5499,-6.054 z"
       id="rect4021-2"
       inkscape:connector-curvature="0" />
    <path
       style="fill:#000000;fill-opacity:1;fill-rule:evenodd;stroke:#000029;stroke-width:0.75592357px;stroke-linecap:butt;stroke-linejoin:miter;stroke-opacity:0"
       d="m 58.534848,890.27752 c 5.528554,-3.19316 11.334782,1.39544 14.832822,5.49121 17.968554,19.87613 37.08314,38.67632 55.46974,58.16101 2.74531,7.76033 -10.33671,11.28993 -13.29034,4.12686 -12.46896,-13.99687 -25.900036,-27.10964 -38.797515,-40.71287 -6.738745,-7.21168 -13.96448,-14.07729 -20.291435,-21.60791 -0.768707,-1.98718 0.140533,-4.5147 2.076728,-5.4583 z"
       id="rect4021-6-8"
       inkscape:connector-curvature="0" />
    <path
       style="fill:#000000;fill-opacity:1;fill-rule:evenodd;stroke:#000000;stroke-width:0.57074142px;stroke-linecap:butt;stroke-linejoin:miter;stroke-opacity:0"
       d="m 126.83286,952.90574 c 4.01711,6.7496 -4.25778,11.98536 -9.08711,15.13452 -9.97448,7.35293 -18.648641,16.50898 -29.593492,22.50528 -8.596306,0.59054 -7.918188,-13.57302 -0.0777,-14.41535 6.416825,-4.12309 12.021687,-9.39591 18.015077,-14.10831 4.70005,-3.48244 8.69729,-8.38725 14.39756,-10.20647 2.14321,-0.52802 4.55132,-0.27266 6.34566,1.09033 z"
       id="rect4021-9-6"
       inkscape:connector-curvature="0" />
    <path
       style="fill:#000000;fill-opacity:1;fill-rule:evenodd;stroke:#000000;stroke-width:0.59768641px;stroke-linecap:butt;stroke-linejoin:miter;stroke-opacity:0"
       d="m 129.21236,1025.98 c -7.24345,4.3123 -13.48375,-3.7767 -17.79738,-8.5952 -8.33266,-8.7331 -17.378946,-16.7664 -25.461262,-25.74156 -2.905361,-7.1608 9.352336,-12.05793 12.870166,-5.58617 7.917296,9.97259 17.957636,18.10303 26.721526,27.34083 3.26179,3.1387 8.41398,8.2853 3.66695,12.5821 z"
       id="rect4021-9-9-1"
       inkscape:connector-curvature="0" />
    <path
       style="fill:none;fill-rule:evenodd;stroke:#ffffff;stroke-width:1.05810153px;stroke-linecap:butt;stroke-linejoin:miter;stroke-opacity:1"
       d="m 77.926004,919.32161 c 4.873062,4.95302 9.939322,9.73475 14.394216,15.07975"
       id="path4153"
       inkscape:connector-curvature="0" />
    <path
       style="fill:none;fill-rule:evenodd;stroke:#ffffff;stroke-width:0.005;stroke-linecap:butt;stroke-linejoin:miter;stroke-opacity:1;stroke-miterlimit:4;stroke-dasharray:none"
       d="M 91.545074,973.69659 77.781746,983.4193"
       id="path4177"
       inkscape:connector-curvature="0" />
  </g>
</svg>
